<svg width="774" height="471" viewBox="0 0 774 471" fill="none" xmlns="http://www.w3.org/2000/svg">
<path d="M472.469 39.3291L492.625 17.9848C496.016 14.3951 501.515 14.3939 504.907 17.9822L504.909 17.9848L558.571 74.8006C561.827 78.2474 563.656 82.9214 563.656 87.7949V464.107" stroke="#CBCBCB" stroke-width="8"/>
<path d="M591.88 462.958H534.346C532.547 462.958 531.089 464.501 531.089 466.405V467.554C531.089 469.457 532.547 471 534.346 471H591.88C593.678 471 595.137 469.457 595.137 467.554V466.405C595.137 464.501 593.678 462.958 591.88 462.958Z" fill="#AFB9C5"/>
<path fill-rule="evenodd" clip-rule="evenodd" d="M484.592 26.8062C498.582 41.6109 498.582 65.6141 484.592 80.4187L463.099 103.163L412.437 49.5509L433.93 26.8062C447.92 12.0016 470.602 12.0016 484.592 26.8062Z" fill="#C5CFD6"/>
<path d="M433.636 81.0198C447.626 95.8245 461.201 105.462 463.957 102.546C466.712 99.63 457.605 85.2645 443.615 70.4598C429.625 55.6551 416.051 46.0175 413.295 48.9336C410.539 51.8497 419.647 66.2152 433.636 81.0198Z" fill="#F2F2F2"/>
<path opacity="0.2" fill-rule="evenodd" clip-rule="evenodd" d="M356.689 119.988C358.73 118.917 361.452 120.16 360.317 122.991C359.101 126.024 354.605 126.061 352.066 126.001C352.32 125.987 353.138 123.206 353.418 122.786C354.245 121.546 355.434 120.648 356.689 119.988ZM333.186 175.239C332.465 175.891 333.127 175.3 333.186 175.239V175.239ZM359.062 134.067C360.282 135.045 360.34 136.772 359.342 137.941C358.153 139.334 355.985 139.284 354.366 139.149C353.633 139.088 349.723 138.762 350.651 138.091C350.579 138.119 350.43 138.188 350.271 138.281C350.185 138.61 350.095 138.937 350.001 139.263C350.024 139.277 350.043 139.292 350.068 139.306C350.041 139.294 350.023 139.28 349.999 139.268C349.057 142.525 347.717 145.626 345.963 148.527C346.619 148.256 347.299 148.051 347.987 147.959C350.028 147.688 354.318 149.347 352.035 152.194C349.846 154.924 346.441 151.999 343.958 151.596C341.548 155.12 338.891 158.498 336.106 161.763C336.277 161.819 336.426 161.935 336.512 162.117C337.629 161.523 338.792 160.673 339.826 160.442C341.317 160.11 344.374 159.908 345.501 161.306C346.886 163.025 345.399 164.423 343.762 164.753C341.387 165.233 338.279 164.019 335.995 163.199C335.734 163.247 335.448 163.167 335.278 162.948C335.227 162.931 335.177 162.914 335.128 162.897C332.308 166.146 329.381 169.288 326.471 172.361C326.502 172.359 326.533 172.357 326.565 172.356C327.324 171.834 328.138 171.405 329.02 171.181C331.061 170.659 333.461 170.655 335.116 172.201C336.765 173.741 337.348 176.435 335.641 178.166C332.224 181.63 327.195 173.738 325.473 173.409C322.516 176.499 319.389 179.386 316.214 182.215C316.574 182.1 316.944 182.015 317.326 181.977C320.439 181.663 327.743 185.658 323.921 189.595C320.591 193.026 316.741 186.428 314.06 184.122C311.067 186.759 308.059 189.377 305.134 192.098C306.729 191.654 308.269 191.588 309.978 192.128C311.746 192.688 314.599 194.086 313.48 196.588C312.342 199.134 308.916 197.977 307.131 197.171C306.158 196.73 304.207 195.244 302.494 194.619C297.828 199.236 293.785 204.322 290.724 210.311C288.813 214.051 287.362 218.046 286.34 222.152C285.688 224.773 284.403 229.175 284.658 232.585C283.437 225.759 285.654 217.559 288.041 211.455C290.236 205.843 293.519 200.915 297.364 196.48C296.401 193.44 288.287 189.061 293.14 186.234C295.718 184.739 298.356 187.216 298.918 189.839C299.304 191.642 298.713 193.908 298.087 195.659C299.296 194.307 300.553 192.998 301.849 191.732C303.639 189.984 305.473 188.285 307.323 186.609C304.276 183.609 301.395 175.03 305.483 173.624C311.52 171.555 308.608 183.26 308.186 185.454C308.067 185.462 307.973 185.424 307.905 185.343C307.939 185.544 307.978 185.758 308.026 185.975C311.568 182.782 315.163 179.652 318.639 176.384C318.326 176.141 317.829 175.215 317.438 174.722C316.556 173.61 315.712 172.449 315.095 171.149C314.121 169.094 313.182 165.816 315.767 164.606C318.579 163.287 319.913 166.994 319.932 169.206C319.944 170.736 319.546 172.19 319.338 173.69C319.273 174.157 319.521 176.265 318.914 175.359C318.942 175.693 318.946 175.935 318.932 176.107C319.556 175.517 320.176 174.921 320.791 174.321C320.763 174.245 320.742 174.162 320.737 174.066C320.704 173.407 321.337 173.153 321.781 173.346C322.593 172.537 323.398 171.718 324.187 170.882C325.861 169.113 327.56 167.293 329.246 165.434C328.88 165.105 329.026 164.649 328.684 164.3C328.343 163.951 327.671 163.759 327.269 163.435C326.26 162.62 325.423 161.433 324.818 160.264C323.819 158.333 322.529 154.282 325.45 153.36C328.461 152.408 329.988 156.307 330.18 158.746C330.218 159.218 329.878 163.475 329.619 165.021C332.739 161.566 335.809 157.983 338.59 154.336C337.747 154.329 335.359 152.521 334.876 152.027C333.698 150.823 331.826 148.163 333.893 146.754C335.731 145.504 337.994 147.312 338.779 149.07C338.908 149.359 339.362 152.053 339.397 153.262C340.548 151.716 341.646 150.161 342.667 148.601C343.349 147.563 343.986 146.499 344.581 145.412C344.438 145.327 344.303 145.178 344.176 144.994C341.112 144.45 337.209 139.442 340.808 137.697C342.522 136.868 344.38 138.578 345.218 139.978C345.39 140.264 345.668 141.705 345.894 142.841C347.608 139.24 348.919 135.427 349.917 131.518C349.65 131.448 349.424 131.235 349.395 130.868C347.908 129.98 346.733 129.24 345.696 127.532C345.051 126.471 343.89 124.046 345.786 123.456C348.253 122.688 349.801 126.636 350.002 128.58C350.025 128.806 350.024 129.463 350.016 130.064C350.101 130.052 350.188 130.053 350.273 130.069C350.84 127.649 351.294 125.197 351.655 122.741C350.309 122.288 350.079 114.877 350.976 113.822C352.981 111.458 354.393 114.87 354.285 116.674C354.158 118.801 353.237 120.736 352.141 122.454C352.024 122.636 352.057 122.627 352.027 122.374C352.01 122.499 351.97 122.591 351.911 122.658C351.967 123.778 352.076 124.924 352.023 125.915C351.87 128.752 351.553 131.606 351.094 134.406C350.982 135.087 350.855 135.763 350.711 136.433C351.794 135.466 353.253 134.607 353.824 134.338C355.307 133.641 357.59 132.888 359.062 134.067ZM284.416 232.316C284.487 233.227 284.7 234.059 285.118 234.741C284.811 233.962 284.58 233.15 284.416 232.316Z" fill="#C1DEE2"/>
<g opacity="0.5">
<path fill-rule="evenodd" clip-rule="evenodd" d="M338.09 212.885C340.533 209.198 345.067 199.836 348.505 198.519C350.72 197.67 350.074 206.447 350.102 208.12C350.208 214.594 349.612 221.028 348.877 227.448C347.552 239.026 343.219 249.338 337.276 259.192C334.217 264.263 330.63 269.395 325.662 272.559C323.375 274.016 320.624 274.26 318.365 275.515C315.735 276.976 317.167 275.795 315.982 278.696C314.336 282.723 313.809 287.918 313.048 292.215C309.551 311.94 301.084 416.212 302.552 436.276C302.682 438.055 300.339 438.48 300.222 436.309C299.6 424.797 304.981 345.08 307.695 319.01C310.409 292.94 313.156 269.909 315.911 260.889C319.252 249.947 325.287 236.788 330.31 226.583C332.643 221.843 335.187 217.265 338.09 212.885Z" fill="#69A1AC"/>
<path fill-rule="evenodd" clip-rule="evenodd" d="M356.223 340.746C362.58 335.807 369.461 345.128 363.709 350.068C360.529 352.798 357.204 351.827 355.332 349.552C354.117 351.119 352.98 352.758 351.887 354.142C348.558 358.36 345.411 362.678 342.404 367.098C336.157 376.279 330.803 385.978 325.206 395.5C319.682 404.898 314.202 414.344 309.195 423.98C304.953 432.144 299.299 441.748 297.847 450.698C300.051 431.716 308.411 413.472 318.368 396.738C328.243 380.142 339.576 362.017 354.867 348.919C353.311 346.498 353.267 343.041 356.223 340.746Z" fill="#C1DEE2"/>
<path fill-rule="evenodd" clip-rule="evenodd" d="M235.592 294.453C239.149 295.189 244.962 303.706 247.895 306.95C251.38 310.806 254.541 314.916 257.522 319.222C263.937 328.491 269.675 338.345 274.555 348.622C282.509 365.375 288.881 382.572 293.506 400.815C296.337 411.982 298.17 423.557 299.256 435.05C299.462 437.218 301.609 453.93 298.515 454.38C295.732 454.786 296.591 441.69 296.457 439.909C294.939 419.813 290.393 400.26 284.068 381.318C282.691 377.192 281.411 372.138 279.208 368.425C277.621 365.75 279.196 366.683 276.408 365.671C274.015 364.801 271.287 365.014 268.835 363.949C263.51 361.638 259.246 357.151 255.508 352.638C248.244 343.867 242.487 334.379 239.487 323.14C237.822 316.909 236.293 310.641 235.444 304.217C235.224 302.557 233.301 293.979 235.592 294.453Z" fill="#69A1AC"/>
<path fill-rule="evenodd" clip-rule="evenodd" d="M249.631 152.761C263.031 177.353 274.042 204.368 281.153 231.729C285.461 248.308 288.473 265.319 291.467 282.208C296.102 308.358 300.485 334.506 301.732 361.12C302.987 387.889 305.468 418.763 297.185 444.546C301.322 418.37 297.383 390.507 296.686 364.168C296.353 351.595 295.387 339.144 294.12 326.644C292.89 314.518 290.882 302.45 289.011 290.419C288.1 284.56 287.143 278.71 286.169 272.863C285.878 271.118 285.755 265.942 284.709 264.75C283.657 263.55 278.287 263.061 276.601 262.181C273.207 260.408 270.013 257.89 267.187 255.23C261.77 250.129 257.056 243.465 253.336 236.895C244.729 221.694 241.288 203.143 241.462 185.538C241.496 182.12 246.69 145.313 244.604 144.806C244.73 144.65 244.848 144.49 244.96 144.323C246.54 147.121 248.09 149.938 249.631 152.761Z" fill="#89C5CC"/>
<path fill-rule="evenodd" clip-rule="evenodd" d="M394.262 241.457C394.469 241.141 395.815 238.946 395.137 239.086C396.517 238.801 393.239 241.507 396.677 239.847C395.045 241.478 395.987 243.597 396.008 245.793C396.044 249.357 395.48 252.893 394.846 256.381C393.843 261.895 392.35 267.256 390.182 272.384C385.458 283.561 377.435 294.32 367.911 301.307C363.209 304.757 358.601 305.932 353.238 307.52C349.851 308.523 349.582 310.377 347.784 313.856C344.041 321.1 340.365 328.319 337.064 335.808C333.122 344.751 329.295 353.703 325.686 362.804C313.526 393.457 303.629 425.215 298.431 458.08C298.304 438.713 302.538 418.766 307.878 400.305C311.769 386.855 316.833 373.889 322.235 361.055C323.544 357.946 325.527 353.946 326.083 350.514C326.472 348.108 325.282 345.795 324.738 343.262C322.614 333.395 322.766 322.342 324.631 312.423C326.687 301.485 332.635 296.408 342.696 294.859C346.375 294.292 351.052 294.5 354.426 292.84C358.101 291.032 359.618 285.089 361.708 281.275C367.322 271.027 373.992 261.2 381.652 252.566C383.773 250.175 386.054 247.969 388.473 245.925C389.999 244.635 393.222 243.046 394.262 241.457Z" fill="#89C5CC"/>
<path fill-rule="evenodd" clip-rule="evenodd" d="M281.448 437.163H317.153C318.758 437.163 320.06 438.541 320.06 440.239C320.06 440.39 320.049 440.54 320.029 440.688L317.269 460.491C316.428 466.528 311.532 471 305.766 471H292.835C287.068 471 282.173 466.528 281.332 460.491L278.572 440.688C278.338 439.007 279.436 437.444 281.024 437.196C281.164 437.174 281.306 437.163 281.448 437.163Z" fill="#C1DEE2"/>
</g>
<path fill-rule="evenodd" clip-rule="evenodd" d="M24.1037 328.551H197.349C210.661 328.551 221.453 336.78 221.453 346.932V452.62C221.453 462.771 210.661 471 197.349 471H24.1037C10.7916 471 0 462.771 0 452.62V346.932C0 336.78 10.7916 328.551 24.1037 328.551ZM48.2075 360.717C44.8794 360.717 42.1815 362.774 42.1815 365.312V434.239C42.1815 436.777 44.8794 438.834 48.2075 438.834H173.246C176.574 438.834 179.271 436.777 179.271 434.239V365.312C179.271 362.774 176.574 360.717 173.246 360.717H48.2075Z" fill="#C5CFD6"/>
<path fill-rule="evenodd" clip-rule="evenodd" d="M284.411 458.016C263.008 430.358 248.526 409.854 240.966 396.503C228.021 373.644 217.426 353.303 214.082 345.533C206.109 327.004 232.438 318.328 238.396 326.97C247.415 340.051 266.676 381.212 296.179 450.454L284.411 458.016Z" fill="#B28B67"/>
<path fill-rule="evenodd" clip-rule="evenodd" d="M240.553 449.975L200.721 343.87C192.202 324.527 233.343 311.813 239.604 320.815C253.818 341.251 287.602 421.869 291.837 427.957L240.553 449.975Z" fill="#2F3676"/>
<path fill-rule="evenodd" clip-rule="evenodd" d="M134.47 428.504C142.195 416.544 170.313 376.321 185.657 359.701C190.066 354.925 194.368 350.342 198.438 346.071C210.535 333.376 234.88 354.985 222.799 366.541C192.713 395.321 148.798 434.153 145.131 437.617C139.99 442.471 129.615 436.02 134.47 428.504Z" fill="#B28B67"/>
<path fill-rule="evenodd" clip-rule="evenodd" d="M136.106 423.191C133.466 425.46 131.752 427.32 130.966 428.769C130.01 430.532 128.899 433.279 127.632 437.01C129.608 438.224 147.368 449.139 180.91 469.755C184.864 465.869 185.451 462.821 182.673 460.61C179.895 458.399 177.602 456.535 175.794 455.018L157.227 428.374C156.87 427.861 156.191 427.739 155.711 428.102C155.703 428.108 155.695 428.115 155.687 428.121L151.928 431.138C148.444 430.775 145.838 430.062 144.112 429.001C142.709 428.139 141.09 426.362 139.254 423.67C138.55 422.637 137.194 422.379 136.227 423.094C136.186 423.124 136.145 423.157 136.106 423.191Z" fill="#E4E4E4"/>
<path fill-rule="evenodd" clip-rule="evenodd" d="M275.204 453.883C273.99 457.314 273.383 459.881 273.383 461.584C273.383 463.656 273.709 466.678 274.361 470.653C276.632 470.653 297.041 470.653 335.588 470.653C337.179 465.086 336.261 462.081 332.833 461.637C329.405 461.194 326.557 460.793 324.29 460.435L295.832 447.01C295.284 446.751 294.642 447.012 294.398 447.591C294.394 447.601 294.39 447.611 294.386 447.621L292.557 452.317C289.384 453.884 286.805 454.667 284.821 454.667C283.209 454.667 280.983 453.978 278.142 452.6C277.052 452.071 275.763 452.578 275.264 453.731C275.242 453.781 275.222 453.832 275.204 453.883Z" fill="#E4E4E4"/>
<path fill-rule="evenodd" clip-rule="evenodd" d="M186.389 349.169C153.283 343.462 131.108 339.559 119.864 337.461C87.8152 331.481 78.4695 313.23 83.9952 273.41H143.045C150.859 275.798 183.51 290.567 240.998 317.718C251.341 323.151 249.415 339.172 247.524 344.45C247.447 344.665 230.01 376.284 195.214 439.306L146.909 406.741L186.479 353.007C187.524 350.779 187.494 349.5 186.389 349.169Z" fill="#5C63AB"/>
<path fill-rule="evenodd" clip-rule="evenodd" d="M94.4833 129.971C88.5342 124.882 84.0158 118.111 83.3562 109.674C81.4557 85.3643 114.901 84.3404 123.046 95.2237C131.19 106.107 134.976 136.968 127.084 140.717C123.937 142.212 116.647 141.443 108.9 138.437L118.123 169.816L91.8063 174.892L94.4833 129.971Z" fill="#B28B67"/>
<path fill-rule="evenodd" clip-rule="evenodd" d="M105.336 107.903C108.51 121.978 112.318 128.593 116.759 127.748C123.421 126.48 128.446 121.219 131.369 120.662C133.5 120.257 133.42 122.987 132.301 125.213C131.378 127.049 125.936 129.685 126.311 132.188C126.686 134.691 130.88 131.902 131.102 133.386C131.47 135.842 132.95 140.309 128.644 141.128C124.287 141.957 111.557 142.763 108.456 136.769C106.455 132.9 104.279 124.509 101.926 111.596C101.657 111.615 101.386 111.65 101.113 111.702C97.3796 112.412 94.802 115.984 95.3559 119.68C95.6371 121.556 96.6713 123.103 98.1099 124.079C96.8732 126.562 95.4624 129.179 93.8066 131.917C85.5881 128.871 78.0216 116.817 83.5108 102.81C84.6248 96.2484 88.7473 92.0721 93.9703 89.5033C98.1131 86.834 102.667 85.7553 106.702 86.1151C114.386 85.3155 121.504 86.3163 123.628 87.3109C124.694 94.4208 123.618 96.7952 111.702 98.8714C109.01 100.954 107.158 104.011 105.336 107.903Z" fill="#191847"/>
<path fill-rule="evenodd" clip-rule="evenodd" d="M170.018 248.969L204.645 275.878C214.037 278.559 221.883 281.896 228.184 285.888C229.673 287.323 231.472 290.23 225.299 289.727C219.126 289.225 212.611 288.99 211.76 291.218C210.908 293.446 214.643 296.111 212.922 299.117C211.774 301.122 206.351 296.096 196.653 284.041L162.363 268.993L170.018 248.969ZM37.0664 249.898L59.7517 249.992C45.7446 297.843 38.1828 323.233 37.0664 326.16C34.5545 332.748 39.8701 342.781 42.1432 348.173C34.7397 351.679 35.5285 338.695 26.1892 343.293C17.6646 347.49 11.18 355.095 1.33119 348.664C0.12033 347.873 -1.20657 344.896 1.9994 342.57C9.98663 336.774 21.4967 326.63 23.0519 323.291C25.1727 318.738 29.8442 294.274 37.0664 249.898Z" fill="#B28B67"/>
<path fill-rule="evenodd" clip-rule="evenodd" d="M101.534 149.164L110.921 147.46C145.749 179.299 160.055 240.465 202.745 272.868L192.47 286.346C118.409 276.642 100.053 202.034 101.534 149.164Z" fill="#323131"/>
<path fill-rule="evenodd" clip-rule="evenodd" d="M60.6143 273.999C98.2523 273.999 125.938 273.999 143.672 273.999C147.467 273.999 146.752 268.2 146.203 265.273C139.871 231.499 115.154 195.091 115.154 147.014L91.1963 143.038C71.3802 176.765 64.5275 218.289 60.6143 273.999Z" fill="#DDE3E9"/>
<path fill-rule="evenodd" clip-rule="evenodd" d="M61.2819 176.19C57.8024 175.131 55.0469 172.663 53.0156 168.784C44.259 152.063 47.4214 142.857 56.7794 139.831C66.1374 136.805 74.4828 143.038 89.3925 143.038C90.2035 143.038 90.9463 143.092 91.6208 143.2L99.1208 143.653C120.639 220.828 126.574 272.319 116.925 298.124H51.5521C47.6788 307.681 43.9724 315.723 40.4329 322.248H22.6201C20.9436 264.886 33.8309 216.2 61.2819 176.19Z" fill="#4B4B4B"/>
<path fill-rule="evenodd" clip-rule="evenodd" d="M65.7873 258.488C67.8433 276.692 71.1849 289.904 75.8122 298.124H51.552C56.07 286.975 60.8151 273.763 65.7873 258.488Z" fill="black" fill-opacity="0.1"/>
<path fill-rule="evenodd" clip-rule="evenodd" d="M576.02 328.551H659.884L670.872 471H546.034L576.02 328.551Z" fill="#C5CFD6"/>
<path fill-rule="evenodd" clip-rule="evenodd" d="M576.02 328.551H601.812L617.25 471H546.034L576.02 328.551Z" fill="black" fill-opacity="0.1"/>
<path fill-rule="evenodd" clip-rule="evenodd" d="M512.432 304.147C503.491 298.465 488.489 305.765 488.499 313.891C488.53 338.204 509.497 452.793 510.592 460.037C511.687 467.281 523.414 469.194 524.097 460.061C525.184 445.528 527.203 395.219 525.183 371.932C524.349 362.32 523.451 353.166 522.567 344.999C533.569 366.025 550.585 396.129 573.614 435.312L586.116 429.267C576.299 395.038 568.249 370.873 561.966 356.773C551.208 332.629 541.121 311.953 536.876 304.67C530.198 293.214 518.574 297.212 512.432 304.147Z" fill="#B28B67"/>
<path fill-rule="evenodd" clip-rule="evenodd" d="M585.222 410.259L542.313 302.689C532.033 285.19 503.213 306.25 506.718 316.399C514.677 339.441 555.152 414.037 557.524 420.902L585.222 410.259Z" fill="#25262F"/>
<path fill-rule="evenodd" clip-rule="evenodd" d="M587.782 422.389C590.422 424.659 592.135 426.519 592.921 427.968C593.877 429.731 594.988 432.477 596.255 436.208C594.279 437.423 576.52 448.338 542.977 468.953C539.024 465.068 538.436 462.019 541.214 459.808C543.992 457.597 546.285 455.733 548.093 454.216L566.66 427.572C567.018 427.06 567.696 426.938 568.176 427.3C568.184 427.307 568.192 427.313 568.201 427.319L571.959 430.337C575.444 429.973 578.049 429.261 579.776 428.199C581.179 427.337 582.798 425.56 584.633 422.869C585.338 421.836 586.693 421.578 587.66 422.292C587.702 422.323 587.742 422.355 587.782 422.389Z" fill="#E4E4E4"/>
<path fill-rule="evenodd" clip-rule="evenodd" d="M526.843 454.23C528.058 457.661 528.665 460.228 528.665 461.931C528.665 464.003 528.339 467.026 527.686 471C525.416 471 505.006 471 466.459 471C464.868 465.434 465.787 462.429 469.215 461.985C472.643 461.541 475.49 461.14 477.758 460.782L506.216 447.357C506.763 447.099 507.405 447.359 507.649 447.938C507.653 447.948 507.657 447.958 507.661 447.968L509.49 452.664C512.664 454.231 515.243 455.014 517.227 455.014C518.839 455.014 521.065 454.325 523.905 452.948C524.995 452.419 526.284 452.925 526.784 454.079C526.805 454.128 526.825 454.179 526.843 454.23Z" fill="#E4E4E4"/>
<path fill-rule="evenodd" clip-rule="evenodd" d="M485.492 322.156C485.492 352.676 499.188 423.866 499.197 430.586L528.665 430.61C524.352 367.088 522.822 334.984 524.076 334.3C525.958 333.274 601.206 342.251 623.774 342.251C656.317 342.251 669.78 320.533 670.872 280.302H606.405C593.279 281.789 524.812 296.403 499.385 301.427C488.499 303.578 485.492 313.749 485.492 322.156Z" fill="#333541"/>
<path fill-rule="evenodd" clip-rule="evenodd" d="M631.508 120.036C636.51 113.823 639.895 106.208 639.33 97.6755C637.7 73.0911 605.361 78.4993 599.07 90.9074C592.78 103.316 593.527 134.79 601.657 137.007C604.899 137.892 611.806 135.725 618.836 131.242L614.424 164.276H640.477L631.508 120.036Z" fill="#B28B67"/>
<path fill-rule="evenodd" clip-rule="evenodd" d="M613.92 76.6067C617.354 76.0108 626.599 75.6011 628.304 75.6014C629.394 75.6014 630.575 75.8648 631.22 74.8061C631.748 73.9391 631.555 72.4728 631.713 71.4666C631.896 70.2979 632.156 69.1442 632.419 67.9934C633.168 64.7187 634.3 61.6033 635.884 58.6783C638.857 53.1907 643.211 48.8922 648.709 46.391C654.78 43.6292 661.65 42.9968 668.18 43.557C675.168 44.1563 681.494 46.5975 688.091 48.8949C694.379 51.0841 700.964 51.9458 707.54 50.8767C714.166 49.7997 719.172 45.9995 724.761 42.3927C730.482 38.7001 737.02 36.2851 743.783 36.8403C750.097 37.3586 755.915 40.1173 761.136 43.8024C766.02 47.2503 770.05 51.3985 772.326 57.2369C774.774 63.5172 774.771 70.4108 770.746 75.9611C764.912 84.0063 754.08 86.0868 745.069 85.88C739.857 85.7607 734.737 84.7538 729.816 82.9222C723.254 80.4794 717.582 76.3391 711.443 72.9798C708.561 71.4034 705.583 70.1088 702.461 69.1762C699.432 68.2708 696.448 67.8556 693.705 69.7922C690.804 71.8409 688.204 73.8534 684.884 75.1359C681.7 76.3663 678.327 77.0545 674.935 77.0267C668.334 76.9728 661.827 74.7963 655.416 73.3384C650.188 72.1498 644.594 70.9652 639.264 72.1078C637.04 72.5846 633.791 73.5691 632.988 76.0151C646.508 78.6081 651.818 96.3025 648.006 109.292C645.949 116.303 633.584 124.498 628.776 120.812C625.73 118.477 627.579 115.412 628.776 113.388C631.068 109.513 631.852 104.535 627.611 101.837C623.953 99.5102 620.107 105.036 620.034 105.03C619.029 104.946 610.341 99.7469 604.356 92.1599C598.451 92.5303 597.555 88.4102 598.965 85.0407C600.375 81.6712 609.176 77.4306 613.92 76.6067Z" fill="#191847"/>
<path fill-rule="evenodd" clip-rule="evenodd" d="M591.437 192.651L553.757 170.812C547.491 162.938 541.318 156.823 535.236 152.466C533.378 151.645 530.128 151.148 533.168 156.856C536.207 162.565 539.161 168.713 537.612 170.472C536.064 172.23 532.203 169.774 530.356 172.696C529.125 174.644 535.721 177.721 550.144 181.927L577.522 208.455L591.437 192.651ZM532.424 211.077L515.873 201.455C513.55 192.104 510.774 187.399 507.545 187.34C505.063 186.118 509.384 197.935 504.681 196.91C499.977 195.885 488.498 186.85 486.519 188.685C483.593 191.399 486.202 199.732 489.277 203.878C495.023 211.626 499.78 214.275 511.539 217.745C517.688 219.559 524.335 223.195 531.481 228.654L532.424 211.077Z" fill="#997659"/>
<path fill-rule="evenodd" clip-rule="evenodd" d="M609.787 187.786C596.589 187.638 578.99 184.689 560.211 172.074L552.836 189.478C565.789 203.082 584.002 214.259 599.928 213.785C612.477 213.413 618.891 197.348 609.787 187.786Z" fill="#4A1F1F"/>
<path fill-rule="evenodd" clip-rule="evenodd" d="M592.016 215.697C578.005 219.394 554.509 215.034 521.529 202.614C513.349 220.524 509.567 233.292 510.184 240.919C538.476 256.558 562.725 263.531 582.703 263.992C582.068 276.536 583.511 288.472 588.358 299.379C598.322 321.801 656.671 301.036 676.289 305.123C688.575 262.9 664.82 245.741 664.801 218.724C664.78 189.138 642.331 143.598 639.028 143.598L608.908 143.598C607.246 166.193 598.881 191.095 592.016 215.697Z" fill="#672424"/>
</svg>
