<svg width="627" height="489" viewBox="0 0 627 489" fill="none" xmlns="http://www.w3.org/2000/svg">
<path fill-rule="evenodd" clip-rule="evenodd" d="M16.1727 171.488C12.5917 169.712 7.81784 171.771 9.80927 176.465C11.9424 181.492 19.8294 181.554 24.2835 181.455C23.8377 181.431 22.4021 176.822 21.9107 176.125C20.4612 174.07 18.3742 172.581 16.1727 171.488ZM57.4321 261.612C57.5056 261.685 58.3355 262.385 57.4321 261.612ZM12.723 194.224C10.6274 195.826 10.5275 198.654 12.2393 200.568C14.2777 202.847 17.9997 202.764 20.778 202.542C22.0348 202.442 28.7455 201.904 27.1548 200.806C27.2772 200.852 27.5327 200.965 27.8062 201.117C27.9533 201.655 28.1079 202.191 28.2689 202.724C28.2294 202.747 28.1958 202.772 28.1536 202.795C28.1993 202.775 28.2314 202.753 28.2716 202.733C29.8854 208.065 32.1825 213.142 35.1903 217.891C34.065 217.448 32.8994 217.113 31.7172 216.963C28.2163 216.52 20.8515 219.241 24.7676 223.902C28.5224 228.371 34.3682 223.577 38.6296 222.916C42.7631 228.685 47.3205 234.213 52.0966 239.557C51.8039 239.649 51.5471 239.84 51.3999 240.137C49.4838 239.165 47.4873 237.774 45.714 237.398C43.1551 236.855 37.9081 236.527 35.9741 238.817C33.5954 241.633 36.1452 243.921 38.9556 244.461C43.0307 245.244 48.3651 243.253 52.2862 241.908C52.7348 241.987 53.2244 241.856 53.5169 241.497C53.6036 241.469 53.6902 241.441 53.7745 241.414C58.6112 246.732 63.6328 251.874 68.6239 256.904C68.5708 256.901 68.5177 256.898 68.4623 256.895C67.1603 256.041 65.7638 255.34 64.2501 254.973C60.7484 254.12 56.6284 254.116 53.7867 256.649C50.9561 259.172 49.9534 263.584 52.8818 266.417C58.7433 272.088 67.3795 259.158 70.3362 258.619C75.4083 263.676 80.7715 268.402 86.2189 273.032C85.6003 272.843 84.9659 272.705 84.3101 272.642C78.9684 272.131 66.4302 278.68 72.9858 285.123C78.6987 290.738 85.3108 279.931 89.9147 276.152C95.048 280.467 100.209 284.753 105.226 289.206C102.49 288.479 99.8456 288.372 96.9126 289.258C93.8778 290.177 88.9808 292.468 90.8993 296.566C92.8505 300.733 98.7311 298.836 101.794 297.513C103.464 296.792 106.814 294.357 109.754 293.331C117.759 300.888 124.693 309.212 129.942 319.018C133.219 325.14 135.706 331.681 137.456 338.404C138.573 342.695 140.775 349.902 140.334 355.487C142.434 344.308 138.636 330.881 134.545 320.889C130.782 311.7 125.152 303.634 118.557 296.373C120.212 291.396 134.142 284.217 125.815 279.592C121.393 277.147 116.863 281.204 115.897 285.501C115.233 288.454 116.244 292.164 117.318 295.03C115.243 292.817 113.087 290.675 110.864 288.604C107.793 285.741 104.648 282.962 101.473 280.218C106.705 275.303 111.657 261.252 104.642 258.954C94.2833 255.57 99.2709 274.736 99.9935 278.328C100.199 278.341 100.359 278.279 100.476 278.146C100.418 278.475 100.35 278.826 100.269 279.181C94.1919 273.956 88.0252 268.834 82.0616 263.484C82.5989 263.087 83.4531 261.569 84.1244 260.762C85.6394 258.941 87.0889 257.039 88.1483 254.909C89.8217 251.543 91.4356 246.174 86.9997 244.194C82.1755 242.037 79.883 248.11 79.8493 251.732C79.8264 254.237 80.5087 256.617 80.8641 259.073C80.9752 259.839 80.5474 263.291 81.5908 261.806C81.5416 262.354 81.5345 262.75 81.5589 263.031C80.4882 262.066 79.4258 261.09 78.3702 260.108C78.4191 259.983 78.4553 259.848 78.4635 259.691C78.5201 258.611 77.4334 258.195 76.6713 258.512C75.2783 257.188 73.8989 255.847 72.5442 254.48C69.6728 251.584 66.7598 248.605 63.867 245.563C64.4946 245.024 64.245 244.277 64.832 243.705C65.418 243.134 66.5722 242.818 67.2613 242.287C68.9945 240.952 70.4317 239.007 71.4711 237.093C73.1872 233.93 75.4049 227.295 70.3918 225.787C65.2245 224.231 62.6018 230.618 62.2695 234.611C62.2048 235.385 62.7841 242.355 63.2275 244.887C57.8747 239.233 52.61 233.366 47.8402 227.398C49.2865 227.385 53.3867 224.422 54.2156 223.613C56.2381 221.641 59.4531 217.284 55.9074 214.978C52.7546 212.932 48.8685 215.895 47.5203 218.774C47.2987 219.248 46.5173 223.66 46.4563 225.64C44.4822 223.109 42.599 220.563 40.8469 218.009C39.6785 216.311 38.5866 214.568 37.565 212.788C37.8109 212.649 38.0423 212.406 38.2608 212.104C43.519 211.211 50.2229 203.007 44.0466 200.153C41.106 198.795 37.917 201.597 36.4765 203.891C36.1814 204.36 35.7034 206.72 35.3144 208.581C32.3753 202.684 30.1293 196.442 28.4199 190.041C28.8776 189.927 29.2653 189.578 29.3164 188.976C31.8693 187.521 33.8852 186.309 35.6673 183.51C36.7745 181.772 38.7683 177.8 35.5152 176.836C31.2818 175.58 28.6225 182.046 28.2762 185.231C28.2359 185.601 28.2373 186.676 28.2513 187.661C28.1043 187.641 27.9557 187.644 27.81 187.669C26.8377 183.706 26.0616 179.692 25.4444 175.671C27.7551 174.927 28.1546 162.792 26.6161 161.064C23.1773 157.195 20.7512 162.784 20.9348 165.738C21.1517 169.221 22.7299 172.389 24.6092 175.201C24.8108 175.499 24.7533 175.484 24.8055 175.069C24.8344 175.274 24.903 175.426 25.0048 175.535C24.9078 177.369 24.7188 179.246 24.8095 180.868C25.0698 185.514 25.6109 190.186 26.3967 194.772C26.5878 195.888 26.8067 196.994 27.0521 198.091C25.1949 196.509 22.6908 195.103 21.711 194.663C19.168 193.523 15.2489 192.293 12.723 194.224ZM140.632 355.503C140.514 357.123 140.222 358.606 139.676 359.829C140.085 358.437 140.399 356.989 140.632 355.503Z" fill="#F2F2F2"/>
<g opacity="0.7">
<path fill-rule="evenodd" clip-rule="evenodd" d="M85.8303 281.216C95.7758 280.7 108.076 286.506 109.137 297.316C109.907 305.171 109.669 313.004 110.862 320.847C111.815 327.115 113.833 333.132 116.584 338.842C119.229 344.333 124.717 349.007 126.145 354.872C127.054 358.61 126.545 363.867 125.291 367.523C123.765 371.968 124.576 371.617 127.616 375.346C133.573 382.655 138.937 390.151 142.73 398.88C148.194 411.453 151.776 426.151 149.748 439.914C149.49 441.662 149.184 447.934 146.778 448.372C144.09 448.862 145.347 445.275 145.49 444.116C146.405 436.723 147.217 430.26 146.114 422.751C141.857 393.779 121.073 374.691 107.54 350.102C106.796 348.834 105.225 345.814 104.133 343.822C102.409 340.677 100.676 334.693 98.3422 332.361C93.9466 327.968 97.9877 336.8 98.8442 338.486C99.9271 340.619 101.118 342.885 102.228 344.754C107.306 353.417 112.973 362.873 118.217 371.803C95.5373 376.971 79.5646 349.704 73.4784 331.779C68.4638 317.01 62.464 282.48 85.8303 281.216Z" fill="#69A1AC"/>
<path fill-rule="evenodd" clip-rule="evenodd" d="M219.13 253.79C202.504 255.109 191.83 266.08 186.862 281.424C184.184 289.694 183.877 298.189 182.389 306.687C180.15 319.472 175.334 329.161 165.921 338.27C163.005 341.091 160.857 343.987 159.329 347.086C156.297 350.18 153.658 353.681 151.719 357.962C149.242 363.428 148.541 369.987 151.401 375.437C152.17 376.902 154.088 379.844 156.076 381.18C148.633 397.031 144.541 414.392 145.002 431.731C145.281 442.198 145.792 452.669 146.388 463.122C146.548 465.929 147.462 470.564 148.835 465.857C150.092 461.551 148.516 454.792 148.37 450.293C147.661 428.38 147.054 408.456 156.075 387.983C157.021 385.837 158.024 383.708 159.068 381.597C159.129 381.561 159.186 381.518 159.244 381.477C159.284 381.507 159.32 381.54 159.36 381.57C159.427 381.451 159.518 381.31 159.625 381.152C159.924 380.843 160.186 380.452 160.434 380.016C161.235 378.907 162.14 377.604 162.145 376.891C162.145 376.886 162.142 376.877 162.142 376.872C167.726 367.756 174.122 359.143 180.655 350.698C180.606 350.759 187.742 341.044 186.638 346.417C186.106 349.006 180.858 353.937 178.738 356.679C174.049 362.781 168.543 370.511 163.967 377.987C163.351 378.341 162.481 380.078 161.852 381.372C161.505 382.028 161.181 382.689 160.862 383.265C177.076 388.622 189.688 377.831 198.288 365.281C198.299 365.266 198.308 365.251 198.318 365.236C200.935 361.768 203.616 358.325 206.965 355.583C212.553 351.009 218.537 350.202 225.126 347.951C243.092 341.812 250.731 318.527 253.158 301.249C255.895 281.757 242.506 251.868 219.13 253.79Z" fill="#89C5CC"/>
<path fill-rule="evenodd" clip-rule="evenodd" d="M186.288 199.205C169.224 216.964 160.981 241.597 154.453 264.754C147.162 290.618 142.347 316.882 142.162 343.773C142.041 361.44 141.56 379.218 142.591 396.865C142.957 403.132 143.582 409.41 144.575 415.61C144.657 416.119 146.88 429.963 149.006 426.737C150.215 424.902 146.728 412.377 146.464 410.29C144.982 398.539 144.638 386.702 144.71 374.866C144.829 355.379 144.254 335.992 146.229 316.576C146.524 313.678 146.757 310.633 147.445 307.797C148.176 304.782 147.245 306.098 149.627 304.905C151.94 303.744 154.8 303.91 157.201 302.454C166.724 296.68 171.595 281.847 175.387 272.115C179.723 260.985 182.359 249.117 184.464 237.405C186.01 228.8 187.115 220.247 187.74 211.531C187.937 208.784 187.949 205.911 188.489 203.21C188.634 202.481 189.364 201.192 189.338 200.547C189.282 199.182 188.457 198.378 188.39 197.231C187.676 197.874 186.974 198.532 186.288 199.205Z" fill="#89C5CC"/>
<path fill-rule="evenodd" clip-rule="evenodd" d="M93.2449 435.821C93.2449 465.191 117.054 489 146.424 489C175.794 489 199.602 465.191 199.602 435.821" fill="#89C5CC"/>
<path fill-rule="evenodd" clip-rule="evenodd" d="M150.691 435.991H147.881C148.076 432.465 148.333 428.946 148.922 425.46C151.177 412.126 158.225 392.543 173.683 390.379C174.254 390.299 176.352 390.285 178.893 390.434C180.097 389.761 181.446 389.354 182.868 389.261C196.029 388.29 210.727 398.908 217.076 409.958C222.194 418.867 221.331 430.565 218.17 440.03C216.054 446.367 211.434 455.401 203.729 455.489C194.09 455.6 193.625 443.686 193.439 436.722C193.191 427.462 192.021 419.396 184.725 413.085C183.025 411.615 181.166 410.321 179.448 408.871C176.759 406.602 173.786 404.278 173.44 400.524C172.962 395.344 175.886 394.412 180.35 395.374C181.111 395.538 188.777 398.978 187.641 396.259C187.295 395.428 186.029 394.77 184.432 394.277C180.298 393.828 175.369 393.306 173.951 393.618C158.656 396.973 152.701 418.159 151.12 431.62C150.949 433.073 150.811 434.531 150.691 435.991Z" fill="#69A1AC"/>
</g>
<path d="M296.51 106C325.781 106 349.51 82.2711 349.51 53C349.51 23.7289 325.781 0 296.51 0C267.239 0 243.51 23.7289 243.51 53C243.51 82.2711 267.239 106 296.51 106Z" fill="#F2F2F2"/>
<path d="M296.51 14C298.167 14 299.51 12.6569 299.51 11C299.51 9.34315 298.167 8 296.51 8C294.853 8 293.51 9.34315 293.51 11C293.51 12.6569 294.853 14 296.51 14Z" fill="black" fill-opacity="0.1"/>
<path d="M254.51 56C256.167 56 257.51 54.6569 257.51 53C257.51 51.3431 256.167 50 254.51 50C252.853 50 251.51 51.3431 251.51 53C251.51 54.6569 252.853 56 254.51 56Z" fill="black" fill-opacity="0.1"/>
<path d="M338.51 56C340.167 56 341.51 54.6569 341.51 53C341.51 51.3431 340.167 50 338.51 50C336.853 50 335.51 51.3431 335.51 53C335.51 54.6569 336.853 56 338.51 56Z" fill="black" fill-opacity="0.1"/>
<path d="M296.51 98C298.167 98 299.51 96.6569 299.51 95C299.51 93.3431 298.167 92 296.51 92C294.853 92 293.51 93.3431 293.51 95C293.51 96.6569 294.853 98 296.51 98Z" fill="black" fill-opacity="0.1"/>
<path fill-rule="evenodd" clip-rule="evenodd" d="M296.51 17L298.51 52H294.51L296.51 17Z" fill="#AFB9C5"/>
<path fill-rule="evenodd" clip-rule="evenodd" d="M314.208 70.6985L295.824 55.1422L298.652 52.3137L314.208 70.6985Z" fill="#AFB9C5"/>
<path d="M296.51 57C298.719 57 300.51 55.2091 300.51 53C300.51 50.7909 298.719 49 296.51 49C294.301 49 292.51 50.7909 292.51 53C292.51 55.2091 294.301 57 296.51 57Z" fill="#C5CFD6"/>
<path fill-rule="evenodd" clip-rule="evenodd" d="M498.247 193.49C502.855 188.081 505.974 181.453 505.453 174.025C503.951 152.625 474.161 157.333 468.366 168.134C462.572 178.935 463.26 206.333 470.749 208.263C473.736 209.033 480.099 207.147 486.574 203.244L482.51 232H506.51L498.247 193.49Z" fill="#B28B67"/>
<path fill-rule="evenodd" clip-rule="evenodd" d="M490.78 181.867C491.565 181.328 492.503 181 493.51 181C496.271 181 498.51 183.462 498.51 186C498.51 188.64 497.263 190.681 495.483 191.547C496.434 193.406 497.39 194.755 498.51 195C502.832 194.563 508.51 183.821 508.51 175C508.51 165.346 500.828 157 486.51 157C473.641 157 468.761 162.306 468.51 167C474.024 168.516 483.661 169.099 497.51 169V170L485.51 171L483.51 177C486.692 176.762 488.965 178.945 490.78 181.867Z" fill="#191847"/>
<path d="M516.51 489C473.984 489 439.51 456.093 439.51 415.5C439.51 374.907 473.984 342 516.51 342C559.036 342 593.51 374.907 593.51 415.5C593.51 456.093 559.036 489 516.51 489Z" fill="#C5CFD6"/>
<path fill-rule="evenodd" clip-rule="evenodd" d="M371 477.66C383.813 449.302 393.079 424.608 396.799 411.58C403.167 389.273 408.012 369.643 409.236 362.313C412.156 344.832 386.774 343.814 383.419 352.502C378.342 365.651 369.477 408.853 358.825 474.107L371 477.66ZM519.621 388.664C507.866 384.017 466.698 369.475 446.842 365.361C441.137 364.179 435.607 363.081 430.408 362.088C414.954 359.138 406.947 387.017 421.831 389.16C458.898 394.494 511.447 400.003 515.944 400.622C522.247 401.488 527.009 391.584 519.621 388.664Z" fill="#B28B67"/>
<path fill-rule="evenodd" clip-rule="evenodd" d="M420.923 354.416L484.51 322.047V315H476.948C415.43 330.676 383.994 340.722 382.641 345.138C382.627 345.185 382.613 345.233 382.601 345.281C382.57 345.321 382.54 345.362 382.51 345.403C370.318 362.17 363.017 444.027 360.62 450.156L383.982 453.641C392.918 420.503 421.51 397.418 420.75 357.729C420.955 356.565 421.007 355.461 420.923 354.416Z" fill="#1F28CF"/>
<path fill-rule="evenodd" clip-rule="evenodd" d="M479.227 373.64C485.045 372.476 490.402 371.436 494.987 370.632C524.6 365.438 533.236 349.586 528.13 315H473.568C464.655 317.56 418.336 336.985 394.303 347.316C378.397 354.154 383.411 378.804 392.419 385.219C392.468 385.613 392.63 385.88 392.919 386C441.373 406.083 479.705 395.545 492.51 398.912L498.433 380.228L479.227 373.64Z" fill="#2B44FF"/>
<path fill-rule="evenodd" clip-rule="evenodd" d="M515.602 385.694C518.777 385.997 521.03 386.474 522.363 387.124C523.984 387.915 526.217 389.338 529.063 391.395C528.146 393.275 519.905 410.173 504.338 442.088C499.341 441.282 497.36 439.374 498.398 436.367C499.435 433.359 500.271 430.849 500.907 428.835L501.895 400.15C501.914 399.598 502.377 399.166 502.928 399.185C502.938 399.185 502.947 399.185 502.957 399.186L507.369 399.463C509.877 397.434 511.531 395.598 512.332 393.955C512.983 392.62 513.343 390.514 513.412 387.637C513.439 386.532 514.355 385.659 515.46 385.685C515.507 385.686 515.555 385.689 515.602 385.694Z" fill="#E4E4E4"/>
<path fill-rule="evenodd" clip-rule="evenodd" d="M376.832 472.402C377.95 475.388 378.51 477.623 378.51 479.106C378.51 480.909 378.209 483.54 377.609 487C375.517 487 356.716 487 321.207 487C319.741 482.155 320.587 479.539 323.745 479.152C326.903 478.766 329.526 478.417 331.615 478.106L357.83 466.419C358.334 466.194 358.925 466.421 359.15 466.925C359.154 466.934 359.158 466.942 359.161 466.951L360.847 471.039C363.77 472.403 366.145 473.085 367.973 473.085C369.458 473.085 371.509 472.485 374.125 471.286C375.129 470.825 376.317 471.266 376.777 472.27C376.797 472.313 376.815 472.357 376.832 472.402Z" fill="#E4E4E4"/>
<path fill-rule="evenodd" clip-rule="evenodd" d="M424.62 295.131L392.722 318.555C384.071 320.89 376.842 323.794 371.038 327.269C369.667 328.518 368.01 331.048 373.696 330.611C379.383 330.174 385.383 329.969 386.168 331.909C386.953 333.849 383.512 336.168 385.098 338.785C386.155 340.53 391.15 336.155 400.084 325.661L431.672 312.562L424.62 295.131ZM568.971 285.375L551.359 288.564C571.799 329.125 582.747 350.571 584.203 352.902C587.477 358.148 584.171 367.599 582.924 372.585C590.171 374.406 587.492 363.402 596.66 365.85C605.028 368.084 612.06 373.566 620.023 366.477C621.002 365.606 621.756 362.841 618.495 361.36C610.373 357.669 598.398 350.815 596.483 348.201C593.871 344.637 584.7 323.695 568.971 285.375Z" fill="#B28B67"/>
<path fill-rule="evenodd" clip-rule="evenodd" d="M417.189 297.678C413.085 297.383 408.621 298.063 403.835 299.676C401.48 300.469 400.214 303.022 401.007 305.377C401.468 306.745 402.522 307.746 403.787 308.188C402.871 308.857 401.947 309.521 401.015 310.182L409.062 326.61C442.925 309.726 474.753 296.996 489.256 269.122C494.124 259.766 492.476 227.988 492.941 216.428L482.246 212.042C467.337 242.858 447.161 272.423 417.189 297.678Z" fill="#69A1AC"/>
<path fill-rule="evenodd" clip-rule="evenodd" d="M530.51 323.91C499.071 327.363 474.326 327.363 456.274 323.91C454.037 323.482 454.135 313.84 455.172 311.207C471.324 270.202 481.949 240.184 481.949 211.703C484.913 213.251 490.1 213.483 497.51 212.399C517.424 241.75 526.577 275.427 530.51 323.91Z" fill="#191847"/>
<path fill-rule="evenodd" clip-rule="evenodd" d="M536.351 328.758C537.419 327.753 537.976 326.247 537.702 324.696L537.181 321.741C536.828 319.739 535.202 318.281 533.282 318.053C532.946 316.553 532.657 315.063 532.418 313.583C530.399 301.087 533.848 288.834 533.687 276.802C549.767 290.522 564.192 314.211 576.962 347.871L595.849 342.313C595.128 339.636 594.382 336.992 593.609 334.38C595.789 333.142 598.336 327.466 596.503 326.516C594.61 325.535 592.604 324.845 590.492 324.438C573.174 272.279 544.855 234.133 505.534 210H502.055L494.161 210C497.51 254.281 451.26 350.955 467.319 433.518C497.002 440.147 539.378 419.523 580.627 436C579.092 402.751 548.347 363.691 536.351 328.758Z" fill="#89C5CC"/>
<path fill-rule="evenodd" clip-rule="evenodd" d="M501.404 211L506.563 226.865L496.174 238.759L505.563 248.106L482.848 287L510.626 248.183L501.404 238.759L510.626 228.248L501.404 211Z" fill="black" fill-opacity="0.1"/>
<path fill-rule="evenodd" clip-rule="evenodd" d="M489.51 302C491.719 302 493.51 300.209 493.51 298C493.51 295.791 491.719 294 489.51 294C487.301 294 485.51 295.791 485.51 298C485.51 300.209 487.301 302 489.51 302ZM484.51 325C486.719 325 488.51 323.209 488.51 321C488.51 318.791 486.719 317 484.51 317C482.301 317 480.51 318.791 480.51 321C480.51 323.209 482.301 325 484.51 325ZM483.51 348C485.719 348 487.51 346.209 487.51 344C487.51 341.791 485.719 340 483.51 340C481.301 340 479.51 341.791 479.51 344C479.51 346.209 481.301 348 483.51 348Z" fill="black" fill-opacity="0.4"/>
</svg>
