<svg width="1783" height="1801" viewBox="0 0 1783 1801" fill="none" xmlns="http://www.w3.org/2000/svg">
<path fill-rule="evenodd" clip-rule="evenodd" d="M1474.99 608.922C1521.62 571.926 1525.8 502.64 1483.97 460.301L516.074 -519.272C480.207 -555.572 422.76 -559.042 382.784 -527.323L-29.8116 -199.943C-76.4381 -162.946 -80.6228 -93.6608 -38.7881 -51.3213L389.677 382.314C431.512 424.653 427.327 493.938 380.701 530.935L239.368 643.077C192.741 680.074 188.557 749.359 230.391 791.699L1198.29 1771.27C1234.15 1807.57 1291.6 1811.04 1331.58 1779.32L1744.17 1451.94C1790.8 1414.95 1794.98 1345.66 1753.15 1303.32L1324.68 869.686C1282.85 827.347 1287.03 758.061 1333.66 721.065L1474.99 608.922Z" fill="#5B7FFF" fill-opacity="0.1"/>
</svg>
