<svg width="1920" height="1105" viewBox="0 0 1920 1105" fill="none" xmlns="http://www.w3.org/2000/svg">
<path fill-rule="evenodd" clip-rule="evenodd" d="M1038.18 232.324C1005.89 182.322 937.339 171.423 891.134 208.945L-177.878 1077.05C-217.492 1109.21 -226.529 1166.05 -198.846 1208.92L86.8811 1651.38C119.17 1701.39 187.721 1712.29 233.926 1674.76L707.154 1290.48C753.359 1252.95 821.909 1263.85 854.199 1313.85L952.073 1465.42C984.362 1515.42 1052.91 1526.32 1099.12 1488.8L2168.13 620.698C2207.74 588.528 2216.78 531.691 2189.1 488.821L1903.37 46.3584C1871.08 -3.64337 1802.53 -14.5426 1756.33 22.9787L1283.1 407.267C1236.89 444.789 1168.34 433.889 1136.05 383.888L1038.18 232.324Z" fill="#5B7FFF" fill-opacity="0.1"/>
</svg>
