<svg width="265" height="40" viewBox="0 0 265 40" fill="none" xmlns="http://www.w3.org/2000/svg">
<path d="M38.3334 5.00001C36.7374 6.1258 34.9703 6.98685 33.1001 7.55001C32.0963 6.39586 30.7623 5.57783 29.2785 5.20655C27.7946 4.83527 26.2326 4.92866 24.8036 5.47409C23.3745 6.01952 22.1475 6.99067 21.2884 8.2562C20.4293 9.52173 19.9796 11.0206 20.0001 12.55V14.2167C17.0711 14.2926 14.1689 13.643 11.5518 12.3257C8.93465 11.0085 6.68394 9.0644 5.00008 6.66667C5.00008 6.66667 -1.66659 21.6667 13.3334 28.3333C9.90096 30.6633 5.81201 31.8316 1.66675 31.6667C16.6667 40 35.0001 31.6667 35.0001 12.5C34.9985 12.0358 34.9539 11.5727 34.8667 11.1167C36.5678 9.43916 37.7681 7.32119 38.3334 5.00001Z" stroke="white" stroke-width="2" stroke-linecap="round" stroke-linejoin="round"/>
<path d="M103.333 3.33334H86.6666C82.0642 3.33334 78.3333 7.0643 78.3333 11.6667V28.3333C78.3333 32.9357 82.0642 36.6667 86.6666 36.6667H103.333C107.936 36.6667 111.667 32.9357 111.667 28.3333V11.6667C111.667 7.0643 107.936 3.33334 103.333 3.33334Z" stroke="white" stroke-width="2" stroke-linecap="round" stroke-linejoin="round"/>
<path d="M101.667 18.95C101.872 20.3371 101.636 21.7537 100.99 22.9984C100.344 24.243 99.322 25.2524 98.0695 25.8828C96.8169 26.5132 95.3975 26.7327 94.0131 26.5099C92.6286 26.2871 91.3497 25.6335 90.3581 24.6419C89.3666 23.6504 88.713 22.3715 88.4902 20.987C88.2674 19.6026 88.4869 18.1832 89.1173 16.9306C89.7477 15.6781 90.7571 14.6562 92.0017 14.0104C93.2464 13.3646 94.663 13.1277 96.0501 13.3333C97.465 13.5432 98.7748 14.2025 99.7862 15.2139C100.798 16.2253 101.457 17.5351 101.667 18.95Z" stroke="white" stroke-width="2" stroke-linecap="round" stroke-linejoin="round"/>
<path d="M104.167 10.8333H104.183" stroke="white" stroke-width="2" stroke-linecap="round" stroke-linejoin="round"/>
<path d="M176.667 13.3333C179.319 13.3333 181.862 14.3869 183.738 16.2623C185.613 18.1376 186.667 20.6812 186.667 23.3333V35H180V23.3333C180 22.4493 179.649 21.6014 179.024 20.9763C178.399 20.3512 177.551 20 176.667 20C175.783 20 174.935 20.3512 174.31 20.9763C173.685 21.6014 173.333 22.4493 173.333 23.3333V35H166.667V23.3333C166.667 20.6812 167.72 18.1376 169.596 16.2623C171.471 14.3869 174.015 13.3333 176.667 13.3333Z" stroke="white" stroke-width="2" stroke-linecap="round" stroke-linejoin="round"/>
<path d="M160 15H153.333V35H160V15Z" stroke="white" stroke-width="2" stroke-linecap="round" stroke-linejoin="round"/>
<path d="M156.667 10C158.508 10 160 8.50763 160 6.66668C160 4.82573 158.508 3.33334 156.667 3.33334C154.826 3.33334 153.333 4.82573 153.333 6.66668C153.333 8.50763 154.826 10 156.667 10Z" stroke="white" stroke-width="2" stroke-linecap="round" stroke-linejoin="round"/>
<path d="M262.567 10.7C262.369 9.90901 261.966 9.18428 261.398 8.599C260.83 8.01372 260.118 7.58863 259.333 7.36666C256.467 6.66666 245 6.66666 245 6.66666C245 6.66666 233.533 6.66666 230.667 7.43332C229.882 7.6553 229.17 8.08039 228.602 8.66567C228.035 9.25094 227.631 9.97567 227.433 10.7667C226.909 13.6759 226.652 16.6272 226.667 19.5833C226.648 22.5617 226.905 25.5355 227.433 28.4667C227.652 29.2331 228.064 29.9302 228.63 30.4908C229.197 31.0513 229.898 31.4563 230.667 31.6667C233.533 32.4333 245 32.4333 245 32.4333C245 32.4333 256.467 32.4333 259.333 31.6667C260.118 31.4447 260.83 31.0196 261.398 30.4343C261.966 29.849 262.369 29.1243 262.567 28.3333C263.087 25.446 263.344 22.5172 263.333 19.5833C263.352 16.6049 263.095 13.6312 262.567 10.7Z" stroke="white" stroke-width="2" stroke-linecap="round" stroke-linejoin="round"/>
<path d="M241.25 25.0333L250.833 19.5833L241.25 14.1333V25.0333Z" stroke="white" stroke-width="2" stroke-linecap="round" stroke-linejoin="round"/>
</svg>
